<?xml version="1.0" encoding="UTF-8" standalone="no"?>
<!-- Created with Inkscape (http://www.inkscape.org/) -->

<svg
   xmlns:dc="http://purl.org/dc/elements/1.1/"
   xmlns:cc="http://creativecommons.org/ns#"
   xmlns:rdf="http://www.w3.org/1999/02/22-rdf-syntax-ns#"
   xmlns:svg="http://www.w3.org/2000/svg"
   xmlns="http://www.w3.org/2000/svg"
   xmlns:xlink="http://www.w3.org/1999/xlink"
   xmlns:sodipodi="http://sodipodi.sourceforge.net/DTD/sodipodi-0.dtd"
   xmlns:inkscape="http://www.inkscape.org/namespaces/inkscape"
   width="210mm"
   height="210mm"
   viewBox="0 0 210 210"
   version="1.1"
   id="svg8"
   inkscape:version="0.92.3 (2405546, 2018-03-11)"
   sodipodi:docname="i.svg">
  <title
     id="title10">BEST SSH</title>
  <defs
     id="defs2">
    <linearGradient
       id="linearGradient121"
       inkscape:collect="always">
      <stop
         id="stop117"
         offset="0"
         style="stop-color:#ffff00;stop-opacity:1;" />
      <stop
         id="stop119"
         offset="1"
         style="stop-color:#0000ff;stop-opacity:1" />
    </linearGradient>
    <linearGradient
       inkscape:collect="always"
       id="linearGradient111">
      <stop
         style="stop-color:#ffff00;stop-opacity:1;"
         offset="0"
         id="stop107" />
      <stop
         style="stop-color:#0000ff;stop-opacity:1"
         offset="1"
         id="stop109" />
    </linearGradient>
    <linearGradient
       inkscape:collect="always"
       xlink:href="#linearGradient111"
       id="linearGradient113"
       x1="88.689308"
       y1="168.32948"
       x2="54.086555"
       y2="99.708008"
       gradientUnits="userSpaceOnUse" />
    <linearGradient
       inkscape:collect="always"
       xlink:href="#linearGradient121"
       id="linearGradient115"
       x1="88.689308"
       y1="168.32948"
       x2="54.086555"
       y2="99.708008"
       gradientUnits="userSpaceOnUse" />
  </defs>
  <sodipodi:namedview
     id="base"
     pagecolor="#ffffff"
     bordercolor="#666666"
     borderopacity="1.0"
     inkscape:pageopacity="0.0"
     inkscape:pageshadow="2"
     inkscape:zoom="0.35"
     inkscape:cx="350"
     inkscape:cy="560"
     inkscape:document-units="mm"
     inkscape:current-layer="layer1"
     showgrid="false"
     inkscape:window-width="1366"
     inkscape:window-height="705"
     inkscape:window-x="-8"
     inkscape:window-y="-8"
     inkscape:window-maximized="1" />
  <metadata
     id="metadata5">
    <rdf:RDF>
      <cc:Work
         rdf:about="">
        <dc:format>image/svg+xml</dc:format>
        <dc:type
           rdf:resource="http://purl.org/dc/dcmitype/StillImage" />
        <dc:title>BEST SSH</dc:title>
        <cc:license
           rdf:resource="https://sharkbyteprojects.github.io/Putty-Installer/LICENSE" />
        <dc:description>PUTTY</dc:description>
      </cc:Work>
    </rdf:RDF>
  </metadata>
  <g
     inkscape:label="Ebene 1"
     inkscape:groupmode="layer"
     id="layer1"
     transform="translate(0,-87)">
    <g
       id="Layer_1"
       transform="matrix(0.26458333,0,0,0.26458333,45.486922,191.14683)">
      <path
         id="path12"
         d="m 157.564,55.003 c 0,-1.756 1.422,-3.182 3.182,-3.182 1.759,0 3.182,1.426 3.182,3.182 0,1.758 -1.423,3.183 -3.182,3.183 -1.76,0 -3.182,-1.425 -3.182,-3.183 m 16.864,32.142 c -1.716,0 -3.104,-1.39 -3.104,-3.104 0,-1.713 1.388,-3.105 3.104,-3.105 1.717,0 3.105,1.392 3.105,3.105 0,1.714 -1.388,3.104 -3.105,3.104 M 139.813,68.926 c 0,-2.417 1.958,-4.376 4.376,-4.376 2.417,0 4.375,1.959 4.375,4.376 0,2.416 -1.958,4.375 -4.375,4.375 -2.418,0 -4.376,-1.959 -4.376,-4.375 m -43.081,68.796 c -1.82,0 -3.294,-1.476 -3.294,-3.296 0,-1.818 1.474,-3.296 3.294,-3.296 1.822,0 3.294,1.478 3.294,3.296 0,1.82 -1.472,3.296 -3.294,3.296 m -24.463,30.117 c 0,-1.061 0.861,-1.922 1.924,-1.922 1.063,0 1.924,0.861 1.924,1.922 0,1.062 -0.861,1.922 -1.924,1.922 -1.063,0 -1.924,-0.86 -1.924,-1.922 M 58.13,142.381 c 0,-2.572 2.085,-4.659 4.658,-4.659 2.573,0 4.658,2.087 4.658,4.659 0,2.574 -2.085,4.66 -4.658,4.66 -2.573,0 -4.658,-2.086 -4.658,-4.66 m 25.078,10.077 c -1.464,0 -2.65,-1.186 -2.65,-2.651 0,-1.464 1.186,-2.65 2.65,-2.65 1.463,0 2.651,1.186 2.651,2.65 0,1.465 -1.188,2.651 -2.651,2.651 m 232.829,68.02 c -1.319,0 -2.388,-1.069 -2.388,-2.387 0,-1.319 1.069,-2.387 2.388,-2.387 1.316,0 2.385,1.068 2.385,2.387 0,1.318 -1.069,2.387 -2.385,2.387 m -26.652,36.992 c -2.196,0 -3.978,-1.78 -3.978,-3.977 0,-2.197 1.782,-3.978 3.978,-3.978 2.197,0 3.978,1.781 3.978,3.978 0,2.197 -1.781,3.977 -3.978,3.977 m -25.059,6.763 c -1.76,0 -3.182,-1.425 -3.182,-3.183 0,-1.756 1.422,-3.182 3.182,-3.182 1.759,0 3.181,1.426 3.181,3.182 0,1.758 -1.422,3.183 -3.181,3.183 m -5.57,-27.845 c -1.317,0 -2.386,-1.069 -2.386,-2.387 0,-1.316 1.069,-2.387 2.386,-2.387 1.318,0 2.388,1.071 2.388,2.387 0,1.318 -1.07,2.387 -2.388,2.387 m -8.353,52.009 c -1.483,0 -2.685,-1.203 -2.685,-2.685 0,-1.483 1.202,-2.686 2.685,-2.686 1.482,0 2.685,1.203 2.685,2.686 0,1.482 -1.203,2.685 -2.685,2.685 m -24.528,6.862 c -2.636,0 -4.773,-2.137 -4.773,-4.774 0,-2.636 2.137,-4.773 4.773,-4.773 2.635,0 4.773,2.137 4.773,4.773 0,2.637 -2.138,4.774 -4.773,4.774 m -7.956,-43.756 c 0,-2.197 1.782,-3.977 3.978,-3.977 2.198,0 3.978,1.78 3.978,3.977 0,2.197 -1.78,3.978 -3.978,3.978 -2.196,0 -3.978,-1.781 -3.978,-3.978 m -19.625,3.978 c -1.095,0 -1.987,-0.89 -1.987,-1.988 0,-1.099 0.892,-1.99 1.987,-1.99 1.098,0 1.989,0.891 1.989,1.99 0,1.098 -0.891,1.988 -1.989,1.988 m -12.196,26.834 c -2.079,0 -3.765,-1.685 -3.765,-3.763 0,-2.078 1.686,-3.764 3.765,-3.764 2.079,0 3.763,1.686 3.763,3.764 0,2.078 -1.684,3.763 -3.763,3.763 m -2.919,29.571 c -3.691,0 -6.681,-2.992 -6.681,-6.684 0,-3.689 2.99,-6.682 6.681,-6.682 3.694,0 6.682,2.993 6.682,6.682 0,3.692 -2.988,6.684 -6.682,6.684 M 152.55,284.917 c -1.758,0 -3.181,-1.426 -3.181,-3.182 0,-1.757 1.423,-3.183 3.181,-3.183 1.761,0 3.183,1.426 3.183,3.183 0,1.756 -1.422,3.182 -3.183,3.182 m 132.06,-78.725 13.132,-1.228 c 0,0 1.986,15.713 0.263,29.037 -0.898,-1.176 -32.365,-16.063 -42.083,-20.643 -3.695,0.862 -7.352,1.69 -10.953,2.479 -12.867,2.816 -22.636,4.793 -37.589,8.432 l 2.053,12.119 -26.49,-5.885 c -8.341,2.209 -18.067,4.851 -29.625,8.06 l -23.043,19.704 5.314,-14.739 c -9.629,2.717 -20.316,5.76 -32.273,9.194 l 17.81,40.547 c 0,0 -25.455,-11.93 -34.472,-20.418 -2.17,-2.041 -6.97,-3.268 -13.312,-3.909 26.813,35.073 69.065,57.741 116.519,57.741 77.207,0 140.662,-59.989 146.211,-135.805 -15.839,5.305 -33.584,10.56 -51.462,15.314 M 81.086,221.854 c -2.079,0 -3.764,-1.685 -3.764,-3.763 0,-2.078 1.685,-3.764 3.764,-3.764 2.079,0 3.763,1.686 3.763,3.764 0,2.078 -1.684,3.763 -3.763,3.763 M 59.472,208.843 c -1.482,0 -2.685,-1.203 -2.685,-2.686 0,-1.482 1.203,-2.685 2.685,-2.685 1.483,0 2.686,1.203 2.686,2.685 0,1.483 -1.203,2.686 -2.686,2.686 m 44.551,-5.371 c 1.482,0 2.685,1.203 2.685,2.685 0,1.483 -1.203,2.686 -2.685,2.686 -1.482,0 -2.686,-1.203 -2.686,-2.686 0,-1.482 1.204,-2.685 2.686,-2.685 m 41.368,-89.1 c 1.482,0 2.685,1.203 2.685,2.685 0,1.482 -1.203,2.684 -2.685,2.684 -1.481,0 -2.684,-1.202 -2.684,-2.684 0,-1.482 1.203,-2.685 2.684,-2.685 m 6.284,33.711 c 0,2.079 -1.683,3.763 -3.763,3.763 -2.08,0 -3.764,-1.684 -3.764,-3.763 0,-2.08 1.684,-3.764 3.764,-3.764 2.08,0 3.763,1.684 3.763,3.764 m 22.356,-17.801 c 1.482,0 2.685,1.203 2.685,2.685 0,1.483 -1.203,2.684 -2.685,2.684 -1.483,0 -2.685,-1.201 -2.685,-2.684 0,-1.482 1.202,-2.685 2.685,-2.685 M 224.946,98.46 c 1.482,0 2.685,1.203 2.685,2.685 0,1.482 -1.203,2.686 -2.685,2.686 -1.483,0 -2.686,-1.204 -2.686,-2.686 0,-1.482 1.203,-2.685 2.686,-2.685 m 5.171,-22.772 c 1.318,0 2.387,1.069 2.387,2.387 0,1.318 -1.069,2.386 -2.387,2.386 -1.317,0 -2.386,-1.068 -2.386,-2.386 0,-1.318 1.069,-2.387 2.386,-2.387 M 249.21,94.78 c 1.318,0 2.387,1.07 2.387,2.387 0,1.318 -1.069,2.387 -2.387,2.387 -1.317,0 -2.387,-1.069 -2.387,-2.387 0,-1.317 1.07,-2.387 2.387,-2.387 M 92.478,246.552 c 6.695,-9.143 17.23,-23.717 31.857,-40.51 -1.151,-6.678 -8.246,-16.193 -8.246,-16.193 l 28.705,-7.16 c 12.389,-12.554 27.754,-25.181 44.445,-37.57 1.208,-8.5 -0.607,-20.808 -4.376,-38.536 l 42.874,11.609 c 22.269,-12.272 48.044,-22.563 76.639,-29.551 -0.695,-0.867 -1.397,-1.728 -2.111,-2.58 -17.377,5.797 -33.902,7.045 -47.884,-2.02 -9.347,-4.773 -6.762,-19.491 -26.915,-26.85 -21.302,-7.16 -41.104,-5.17 -57.015,10.741 15.911,-4.973 31.026,0.994 37.39,10.54 11.666,17.304 -10.143,21.082 -28.64,19.095 -35.003,-3.184 -67.024,-26.056 -95.465,0 -4.773,6.363 -8.353,17.5 -1.989,27.047 0,-3.182 2.587,-10.939 5.172,-14.32 16.905,-14.319 40.373,-2.785 45.245,16.517 6.363,44.551 -32.517,63.038 -77.067,63.038 -3.809,0 -7.666,-0.2 -11.546,-0.559 1.332,21.365 7.258,41.502 16.803,59.436 16.377,-2.717 28.916,-2.336 32.124,-2.174"
         inkscape:connector-curvature="0"
         style="fill:#36a0ce" />
      <path
         id="path14"
         d="m 429.401,103.93 c -61.814,1.514 -111.041,17.006 -148.826,36.329 l 4.733,-8.485 h -10e-4 l -17.6,31.557 5.65,-19.258 c -1.951,1.062 -3.865,2.136 -5.75,3.215 l -11.237,21.383 5.665,-18.117 c -2.59,1.556 -5.111,3.119 -7.57,4.695 l -8.438,16.302 3.588,-13.13 c -46.797,31.256 -68.288,64.31 -68.288,64.31 0,0 166.531,-42.429 197.557,-57.544 -4.764,-6.151 -66.03,-9.149 -71.997,-12.729 0.261,-0.299 0.532,-0.584 0.801,-0.875 l -0.53,0.025 0.875,-0.404 c 28.205,-29.855 96.707,-18.633 96.707,-18.633 0,0 11.931,-9.151 24.661,-28.641 m -29.952,37.024 c -6.976,-2.391 -14.967,-3.601 -23.804,-3.601 -19.96,0 -40.038,6.183 -51.084,10.25 l 10.427,-0.491 6.623,-4.686 4.564,4.192 8.43,-6.273 4.728,6.957 10.653,-8.718 2.193,8.399 10.96,-7.925 3.055,10.041 c 2.398,-1.291 7.207,-4.016 13.255,-8.145 m -63.377,49.924 c -15.838,5.305 -33.584,10.56 -51.462,15.314 -5.921,1.575 -11.857,3.098 -17.742,4.545 l 27.691,-2.59 c 0,0 3.58,10.739 3.446,25.854 -0.897,-1.174 -32.365,-16.063 -42.084,-20.643 -3.694,0.862 -7.351,1.69 -10.952,2.479 -12.867,2.816 -22.636,4.793 -37.589,8.432 -3.862,0.939 -8.066,1.986 -12.765,3.191 l 9.413,-1.016 5.405,9.944 -26.49,-5.885 c -8.341,2.209 -18.067,4.851 -29.625,8.06 l -23.042,19.704 5.313,-14.739 c -9.629,2.717 -20.315,5.76 -32.272,9.194 -1.345,0.386 -2.69,0.773 -4.067,1.17 l 21.876,39.377 c 0,0 -25.455,-11.93 -34.472,-20.418 -2.17,-2.041 -6.97,-3.268 -13.312,-3.909 26.813,35.073 69.065,57.741 116.519,57.741 77.207,0 140.663,-59.989 146.211,-135.805 m -185.776,34.902 71.601,-54.229 c 0,0 -4.164,1.499 -10.216,3.69 l -50.935,38.235 c 0,0 3.507,-15.131 5.755,-21.465 -0.367,0.164 -0.566,0.269 -0.566,0.306 0,0.629 -15.639,33.463 -15.639,33.463 M 315.24,97.166 c 0,2.53 2.315,4.577 5.172,4.577 2.855,0 5.171,-2.047 5.171,-4.577 0,-2.525 -2.316,-4.573 -5.171,-4.573 -2.857,0 -5.172,2.048 -5.172,4.573 m 122.779,-0.13 c 0,0 -2.676,14.422 -19.782,32.225 -4.134,4.303 -9.101,8.801 -15.088,13.343 -0.107,-0.037 -0.231,-0.072 -0.339,-0.109 -2.633,1.839 -5.054,3.431 -7.192,4.774 -5.759,3.615 -9.471,5.451 -9.688,5.558 l -1.678,0.82 -2.206,-7.244 -0.654,-2.154 -11.117,8.037 -1.666,-6.377 -0.448,-1.719 -9.504,7.777 -4.213,-6.198 c -0.601,0.003 -1.206,0.007 -1.814,0.013 l -6.669,4.961 -4.61,-4.235 -5.284,3.739 -0.821,0.039 c 30.928,1.423 55.572,11.453 55.572,11.453 l -2.123,6.364 c -4.491,3.277 -11.554,6.916 -20.417,10.724 0.003,0.416 0.015,0.832 0.015,1.25 0,98.385 -80.045,178.428 -178.432,178.428 -65.837,0 -123.454,-35.846 -154.375,-89.043 -13.285,1.037 -26.139,2.627 -34.486,3.92 1.842,-1.246 3.703,-2.424 5.575,-3.543 39.113,-23.377 83.526,-20.059 83.526,-20.059 0.727,-0.98 1.526,-2.066 2.377,-3.228 6.695,-9.143 17.23,-23.717 31.859,-40.51 -1.153,-6.678 -8.248,-16.193 -8.248,-16.193 l 26.545,-3.537 c 13.14,-13.315 28.603,-27.153 46.469,-40.26 0.053,-0.303 0.092,-0.621 0.136,-0.934 1.208,-8.5 -0.607,-20.807 -4.376,-38.535 l 41.892,15.385 c 38.863,-21.415 86.189,-37.412 142.782,-39.717 35.321,2.122 68.482,14.785 68.482,14.785 M 29.004,257.257 C 17.745,233.888 11.432,207.706 11.432,180.077 11.432,81.689 91.474,1.645 189.861,1.645 c 62.218,0 117.09,32.016 149.034,80.432 -11.905,1.639 -23.425,3.851 -34.52,6.563 -0.694,-0.867 -1.396,-1.727 -2.11,-2.579 C 275.35,53.935 234.953,33.466 189.861,33.466 c -80.838,0 -146.607,65.769 -146.607,146.611 0,3.093 0.107,6.164 0.297,9.213 1.332,21.365 7.258,41.502 16.803,59.436 -9.515,1.58 -20.325,4.207 -31.35,8.531"
         inkscape:connector-curvature="0"
         style="fill:#0a0b09" />
    </g>
    <path
       style="font-style:normal;font-weight:normal;font-size:medium;line-height:1.25;font-family:sans-serif;letter-spacing:0px;word-spacing:0px;fill:url(#linearGradient115);fill-opacity:1;stroke:none;stroke-width:0.66388559"
       d="m 47.162038,99.250407 c -1.607121,0 -2.933167,0.677893 -3.978125,2.033743 -1.044962,1.3445 -1.567445,3.07318 -1.567445,5.18602 0,1.84163 0.31415,3.33869 0.942452,4.49115 0.634912,1.14115 1.607121,1.94899 2.916633,2.42351 0.648137,0.22597 1.259905,0.41237 1.835293,0.5593 0.582002,0.14692 1.121018,0.3333 1.617042,0.55926 0.654756,0.29386 1.140863,0.70617 1.458319,1.2372 0.324069,0.53103 0.486104,1.35582 0.486104,2.47435 0,1.29934 -0.340601,2.33882 -1.021814,3.11841 -0.674596,0.77959 -1.620353,1.1694 -2.837269,1.1694 -0.859773,0 -1.779075,-0.28795 -2.757902,-0.86434 -0.978823,-0.57623 -1.841909,-1.39537 -2.589251,-2.45742 h -0.138901 v 4.20301 c 0.879623,0.66662 1.742705,1.16942 2.589257,1.50835 0.853159,0.33899 1.812147,0.50845 2.876948,0.50845 0.992053,0 1.838601,-0.20334 2.539651,-0.61011 0.707658,-0.40673 1.326044,-0.97167 1.855135,-1.69479 0.482796,-0.66661 0.856472,-1.48008 1.121017,-2.44049 0.271169,-0.96035 0.406746,-1.93203 0.406746,-2.91499 0,-1.80775 -0.277772,-3.21442 -0.833327,-4.22001 -0.555543,-1.00557 -1.382256,-1.75691 -2.480127,-2.25404 -0.542322,-0.23743 -1.203689,-0.46889 -1.984104,-0.69484 -0.780414,-0.22596 -1.38226,-0.41795 -1.805533,-0.57623 -0.800256,-0.31647 -1.35911,-0.77399 -1.676568,-1.37277 -0.317454,-0.59885 -0.476185,-1.42364 -0.476185,-2.47438 0,-1.17504 0.317457,-2.13542 0.952371,-2.88112 0.641525,-0.74568 1.488077,-1.11854 2.539651,-1.11854 0.958984,0 1.89482,0.27122 2.807505,0.81346 0.919302,0.53104 1.660038,1.20331 2.222195,2.01678 h 0.1389 v -3.96577 c -0.667986,-0.49712 -1.435168,-0.91517 -2.301561,-1.254118 -0.86639,-0.338945 -1.81876,-0.508435 -2.857107,-0.508435 z m 33.571022,0 c -1.607123,0 -2.933165,0.677893 -3.978127,2.033743 -1.04496,1.3445 -1.567441,3.07318 -1.567441,5.18602 0,1.84163 0.314148,3.33869 0.942448,4.49115 0.634913,1.14115 1.607123,1.94899 2.916634,2.42351 0.648139,0.22597 1.259905,0.41237 1.835294,0.5593 0.582002,0.14692 1.121017,0.3333 1.617041,0.55926 0.654759,0.29386 1.140863,0.70617 1.45832,1.2372 0.32407,0.53103 0.486105,1.35582 0.486105,2.47435 0,1.29934 -0.340608,2.33882 -1.021816,3.11841 -0.674596,0.77959 -1.620353,1.1694 -2.837266,1.1694 -0.859776,0 -1.779079,-0.28795 -2.757906,-0.86434 -0.978822,-0.57623 -1.841907,-1.39537 -2.58925,-2.45742 h -0.138901 v 4.20301 c 0.87962,0.66662 1.742704,1.16942 2.589257,1.50835 0.853162,0.33899 1.812148,0.50845 2.876947,0.50845 0.992056,0 1.838602,-0.20334 2.539653,-0.61011 0.707663,-0.40673 1.326043,-0.97167 1.855134,-1.69479 0.482799,-0.66661 0.856472,-1.48008 1.121017,-2.44049 0.271165,-0.96035 0.406746,-1.93203 0.406746,-2.91499 0,-1.80775 -0.277776,-3.21442 -0.833326,-4.22001 -0.555548,-1.00557 -1.382256,-1.75691 -2.480126,-2.25404 -0.542324,-0.23743 -1.203688,-0.46889 -1.984103,-0.69484 -0.780415,-0.22596 -1.382258,-0.41795 -1.805536,-0.57623 -0.800254,-0.31647 -1.35911,-0.77399 -1.676566,-1.37277 -0.317457,-0.59885 -0.476184,-1.42364 -0.476184,-2.47438 0,-1.17504 0.317457,-2.13542 0.952369,-2.88112 0.641527,-0.74568 1.488078,-1.11854 2.53965,-1.11854 0.958984,0 1.894821,0.27122 2.807505,0.81346 0.919304,0.53104 1.660038,1.20331 2.222194,2.01678 h 0.138901 v -3.96577 c -0.667984,-0.49712 -1.435167,-0.91517 -2.301558,-1.254118 -0.866394,-0.338945 -1.818763,-0.508435 -2.857109,-0.508435 z m 13.690313,0 c -1.607129,0 -2.933166,0.677893 -3.978132,2.033743 -1.044955,1.3445 -1.567437,3.07318 -1.567437,5.18602 0,1.84163 0.31415,3.33869 0.942449,4.49115 0.634912,1.14115 1.607122,1.94899 2.916627,2.42351 0.648145,0.22597 1.259912,0.41237 1.835296,0.5593 0.582007,0.14692 1.121017,0.3333 1.617045,0.55926 0.654754,0.29386 1.140858,0.70617 1.458315,1.2372 0.324069,0.53103 0.486104,1.35582 0.486104,2.47435 0,1.29934 -0.340603,2.33882 -1.021812,3.11841 -0.674594,0.77959 -1.620349,1.1694 -2.837264,1.1694 -0.859785,0 -1.779082,-0.28795 -2.757905,-0.86434 -0.978827,-0.57623 -1.841906,-1.39537 -2.589257,-2.45742 h -0.138871 v 4.20301 c 0.879614,0.66662 1.7427,1.16942 2.589251,1.50835 0.853167,0.33899 1.81215,0.50845 2.876949,0.50845 0.992055,0 1.838606,-0.20334 2.539653,-0.61011 0.707668,-0.40673 1.326043,-0.97167 1.855138,-1.69479 0.482799,-0.66661 0.856472,-1.48008 1.121017,-2.44049 0.271161,-0.96035 0.406741,-1.93203 0.406741,-2.91499 0,-1.80775 -0.277776,-3.21442 -0.833319,-4.22001 -0.555554,-1.00557 -1.382262,-1.75691 -2.480133,-2.25404 -0.542319,-0.23743 -1.203689,-0.46889 -1.984104,-0.69484 -0.780409,-0.22596 -1.382256,-0.41795 -1.80553,-0.57623 -0.800259,-0.31647 -1.359113,-0.77399 -1.676571,-1.37277 -0.317457,-0.59885 -0.476185,-1.42364 -0.476185,-2.47438 0,-1.17504 0.317457,-2.13542 0.952369,-2.88112 0.641533,-0.74568 1.488085,-1.11854 2.539653,-1.11854 0.958988,0 1.89482,0.27122 2.807508,0.81346 0.9193,0.53104 1.660029,1.20331 2.222195,2.01678 h 0.1389 v -3.96577 c -0.667982,-0.49712 -1.435171,-0.91517 -2.301558,-1.254118 -0.866399,-0.338945 -1.818767,-0.508435 -2.857109,-0.508435 z m 37.727717,0 c -1.08465,0 -2.0734,0.288276 -2.96623,0.864333 -0.88624,0.57623 -1.6435,1.41233 -2.27181,2.50826 -0.64813,1.12987 -1.14417,2.51392 -1.48807,4.1522 -0.34392,1.63829 -0.51587,3.49689 -0.51587,5.57583 0,2.19189 0.17854,4.11828 0.5357,5.77918 0.35715,1.64956 0.85317,3.01106 1.48809,4.08439 0.64814,1.09597 1.40872,1.90384 2.28172,2.42357 0.87962,0.50842 1.85514,0.76263 2.92654,0.76263 0.56878,0 1.08796,-0.079 1.55752,-0.23712 0.47619,-0.14692 0.916,-0.32763 1.31944,-0.54235 0.47619,-0.25974 0.85977,-0.50843 1.15078,-0.74567 0.2976,-0.23746 0.62829,-0.49148 0.99205,-0.76268 v -3.93186 h -0.13899 c -0.72088,1.10725 -1.49469,1.93767 -2.3214,2.49131 -0.8267,0.55362 -1.71295,0.83045 -2.65869,0.83045 -0.68782,0 -1.34258,-0.19776 -1.96427,-0.59318 -0.61507,-0.40673 -1.15407,-1.02815 -1.61703,-1.86424 -0.44312,-0.8022 -0.80689,-1.8417 -1.09126,-3.11842 -0.27778,-1.27673 -0.41668,-2.80201 -0.41668,-4.57587 0,-1.69481 0.12575,-3.18619 0.377,-4.47421 0.25792,-1.29934 0.61506,-2.37269 1.0714,-3.22007 0.46957,-0.87002 1.00197,-1.50839 1.59721,-1.91512 0.60183,-0.41806 1.27645,-0.62707 2.02378,-0.62707 0.91268,0 1.76918,0.26565 2.56942,0.79656 0.80026,0.53102 1.60712,1.37841 2.42061,2.54217 h 0.14878 v -3.98274 c -0.96559,-0.82479 -1.84521,-1.40101 -2.63885,-1.728671 -0.78703,-0.327631 -1.57737,-0.49148 -2.37101,-0.49148 z M 15.39655,99.708009 v 25.235211 h 5.238032 c 1.025121,0 1.868364,-0.1581 2.529732,-0.47455 0.66798,-0.31649 1.279745,-0.84738 1.835295,-1.5931 0.469569,-0.62142 0.843244,-1.41228 1.121017,-2.37269 0.277775,-0.96035 0.416661,-2.06761 0.416661,-3.32176 0,-1.75127 -0.287694,-3.19748 -0.863085,-4.33861 -0.575389,-1.15244 -1.362418,-1.9038 -2.361081,-2.25405 v -0.13737 c 0.595228,-0.50841 1.071414,-1.17898 1.428554,-2.01509 0.357138,-0.84737 0.535708,-1.86989 0.535708,-3.06752 0,-1.06206 -0.122365,-1.9716 -0.367059,-2.72858 -0.244707,-0.76831 -0.638221,-1.39709 -1.180542,-1.88293 -0.489411,-0.42936 -1.001973,-0.71012 -1.537681,-0.84567 -0.535706,-0.13544 -1.342575,-0.203335 -2.420605,-0.203335 z m 13.928403,0 v 25.235211 h 9.732025 v -2.98282 h -7.767765 v -9.3721 h 7.767765 v -2.98281 h -7.767765 v -6.91469 h 7.767765 v -2.982791 z m 24.761602,0 v 2.982791 h 5.277718 v 22.25242 h 1.964262 V 102.6908 h 5.277712 v -2.982791 z m 49.245435,0 v 25.235211 h 1.96426 V 112.5883 h 7.37094 v 12.35492 h 1.96427 V 99.708009 h -1.96427 v 9.897481 h -7.37094 v -9.897481 z m 36.62653,0 v 25.235211 h 9.34515 v -2.98282 h -7.38088 V 99.708009 Z m 10.68441,0 v 2.576061 h 1.9345 v 20.0831 h -1.9345 v 2.57605 h 5.83326 v -2.57605 h -1.9345 v -20.0831 h 1.9345 v -2.576061 z m 9.19631,0 v 25.235211 h 9.73203 v -2.98282 h -7.76776 v -9.3721 h 7.76776 v -2.98281 h -7.76776 v -6.91469 h 7.76776 v -2.982791 z m 12.85699,0 v 25.235211 h 1.83529 V 102.3688 l 7.00389,22.57442 h 2.43052 V 99.708009 h -1.83528 v 20.608471 l -6.38883,-20.608471 z m 13.21413,0 v 2.982791 h 5.27772 v 22.25242 h 1.96426 V 102.6908 h 5.2777 V 99.708009 Z M 17.360811,102.57047 h 2.341242 c 0.654755,0 1.203691,0.0413 1.646806,0.12042 0.443116,0.068 0.820094,0.25417 1.130937,0.55929 0.264545,0.25973 0.456342,0.59885 0.57539,1.01687 0.118922,0.41765 0.17846,0.93293 0.178574,1.54226 -1.05e-4,0.73367 -0.06624,1.37152 -0.198411,1.91337 -0.12566,0.53103 -0.343911,0.96603 -0.654753,1.30498 -0.310841,0.33892 -0.648142,0.56489 -1.011892,0.67792 -0.363754,0.10168 -0.853164,0.15251 -1.468237,0.15251 h -2.539652 z m 0,10.11951 h 3.08528 c 0.648142,0 1.197077,0.0452 1.646806,0.13538 0.456345,0.079 0.843245,0.25976 1.160699,0.54236 0.469572,0.41802 0.793642,0.92644 0.972212,1.52528 0.178572,0.59881 0.267854,1.40667 0.267854,2.42354 0,0.89258 -0.08599,1.6213 -0.257933,2.18624 -0.171952,0.56496 -0.443116,1.06771 -0.813483,1.50835 -0.350525,0.40664 -0.800254,0.68911 -1.34919,0.84743 -0.548935,0.14692 -1.253291,0.22038 -2.113069,0.22038 h -2.599176 z m 40.892363,30.40427 v 25.23523 h 1.964264 v -9.406 h 1.964258 c 1.058186,0 1.934503,-0.21449 2.628935,-0.64403 0.694443,-0.4406 1.296285,-1.09593 1.805536,-1.96594 0.410051,-0.70052 0.727508,-1.52531 0.952369,-2.47436 0.231478,-0.96036 0.347222,-1.99983 0.347222,-3.1184 0,-1.46879 -0.155423,-2.68339 -0.466267,-3.64376 -0.304233,-0.96036 -0.737429,-1.76257 -1.299588,-2.40658 -0.476185,-0.54232 -1.021815,-0.93777 -1.636883,-1.18633 -0.615072,-0.25976 -1.365724,-0.38983 -2.251961,-0.38983 z m 12.043506,0 v 15.10046 c 0,1.90946 0.115745,3.51954 0.347217,4.83013 0.238092,1.31062 0.624987,2.42919 1.160701,3.35563 0.469566,0.81351 1.048267,1.42928 1.736086,1.84734 0.687824,0.41802 1.494691,0.62706 2.420609,0.62706 0.906071,0 1.699712,-0.19776 2.380922,-0.59319 0.681212,-0.39541 1.276439,-1.02251 1.78569,-1.88121 0.535714,-0.90387 0.919305,-2.03374 1.150783,-3.38954 0.238087,-1.36711 0.357136,-2.96587 0.357136,-4.79622 v -15.10046 h -1.964257 v 15.3547 c 0,1.23152 -0.05621,2.26532 -0.168649,3.10145 -0.105816,0.82478 -0.287696,1.55918 -0.545628,2.20319 -0.297616,0.74572 -0.694437,1.30499 -1.190464,1.67785 -0.496028,0.36154 -1.097869,0.5423 -1.805533,0.5423 -0.701051,0 -1.302892,-0.18628 -1.805536,-0.55927 -0.496025,-0.37286 -0.889538,-0.92648 -1.180541,-1.66088 -0.257933,-0.64401 -0.443114,-1.36146 -0.555549,-2.15236 -0.105816,-0.79091 -0.158723,-1.86989 -0.158723,-3.23703 v -15.26995 z m 13.11492,0 v 2.98283 h 5.277711 v 22.2524 h 1.964263 v -22.2524 h 5.277715 4.622961 v 22.2524 h 1.96426 v -22.2524 h 5.27771 v -2.98283 H 95.931289 Z m 24.46399,0 5.21819,14.52425 v 10.71098 h 1.96426 v -11.0669 l 5.19835,-14.16833 h -2.09323 l -4.07733,11.28722 -4.03765,-11.28722 z m -47.658152,2.88114 h 1.944418 c 0.621686,0 1.134248,0.0773 1.537677,0.23547 0.410052,0.14693 0.773801,0.39545 1.091258,0.74571 0.363754,0.40673 0.634919,0.9321 0.813481,1.57615 0.178575,0.64401 0.267858,1.40103 0.267858,2.27098 v 0.002 c 0,0.74572 -0.06614,1.41798 -0.198412,2.0168 -0.125661,0.59881 -0.34391,1.1694 -0.654753,1.71172 -0.310844,0.53103 -0.714278,0.92083 -1.210303,1.1694 -0.496029,0.23743 -1.140862,0.35589 -1.934502,0.35589 h -1.656722 z"
       id="path38"
       inkscape:connector-curvature="0" />
    <path
       style="fill:url(#linearGradient113);stroke:none;stroke-width:0.26458332;fill-opacity:1"
       d="m 201.60506,102.16163 a 4.5357142,3.4017854 0 0 0 -4.53564,3.40134 4.5357142,3.4017854 0 0 0 4.53564,3.40186 4.5357142,3.4017854 0 0 0 4.53564,-3.40186 4.5357142,3.4017854 0 0 0 -4.53564,-3.40134 z m 1.13378,13.60692 a 2.6458332,2.267857 0 0 0 -2.64583,2.26808 2.6458332,2.267857 0 0 0 2.64583,2.26756 2.6458332,2.267857 0 0 0 2.64583,-2.26756 2.6458332,2.267857 0 0 0 -2.64583,-2.26808 z"
       id="path102"
       inkscape:connector-curvature="0" />
  </g>
</svg>
